<svg width="76" height="30" viewBox="0 0 76 30" fill="none" xmlns="http://www.w3.org/2000/svg">
<path d="M4.52855 4.79132C5.57193 3.52111 6.27351 1.75875 6.08283 0C4.58252 0.0615199 2.7656 1.00603 1.68984 2.27624C0.725609 3.39807 -0.119888 5.193 0.110375 6.91556C1.77619 7.04584 3.48877 6.0579 4.52855 4.79132ZM21.4385 19.6719L19.7115 24.9373H17.4916L23.1439 8.20386H25.7344L31.4082 24.9373H29.1127L27.3354 19.6719H21.4385ZM26.8929 17.9819L25.2666 13.1653C24.8961 12.0724 24.6514 11.0808 24.4031 10.111H24.3564C24.1081 11.1025 23.8383 12.1194 23.5181 13.1399L21.8918 17.9783L26.8929 17.9819ZM33.092 16.842C33.092 15.304 33.0452 14.0591 32.9912 12.9192H34.9413L35.042 14.9819H35.0888C35.9775 13.5163 37.3842 12.6478 39.3343 12.6478C42.2234 12.6478 44.3929 15.1049 44.3929 18.7563C44.3929 23.0772 41.7772 25.2087 38.9637 25.2087C37.3842 25.2087 36.0027 24.5139 35.2867 23.3233H35.2399V29.8516H33.092V16.842V16.842ZM35.2363 20.0446C35.2363 20.3703 35.2831 20.6635 35.337 20.9385C35.7328 22.4511 37.0388 23.497 38.5967 23.497C40.8922 23.497 42.227 21.6116 42.227 18.854C42.227 16.4439 40.9677 14.3884 38.6723 14.3884C37.1935 14.3884 35.812 15.456 35.3874 17.0953C35.3119 17.3667 35.2399 17.6924 35.2399 17.9891L35.2363 20.0446ZM46.6379 16.842C46.6379 15.304 46.5912 14.0591 46.5372 12.9192H48.4872L48.588 14.9819H48.6348C49.5234 13.5163 50.9302 12.6478 52.8802 12.6478C55.7693 12.6478 57.9388 15.1049 57.9388 18.7563C57.9388 23.0772 55.3232 25.2087 52.5096 25.2087C50.9302 25.2087 49.5486 24.5139 48.8326 23.3233H48.7859V29.8516H46.6379V16.842V16.842ZM48.7859 20.0446C48.7859 20.3703 48.8326 20.6635 48.8866 20.9385C49.2824 22.4511 50.5884 23.497 52.1463 23.497C54.4417 23.497 55.7765 21.6116 55.7765 18.854C55.7765 16.4439 54.5173 14.3884 52.2218 14.3884C50.7431 14.3884 49.3615 15.456 48.937 17.0953C48.8614 17.3667 48.7895 17.6924 48.7895 17.9891L48.7859 20.0446ZM60.1875 7.31001H62.3606V24.9337H60.1875V7.31001ZM66.7284 19.3245C66.7752 22.2774 68.6533 23.497 70.8228 23.497C72.377 23.497 73.3161 23.2256 74.1292 22.8782L74.4998 24.4415C73.737 24.7889 72.4274 25.187 70.5277 25.187C66.8507 25.187 64.6524 22.7551 64.6524 19.1291C64.6524 15.503 66.7752 12.6478 70.2543 12.6478C74.1544 12.6478 75.1906 16.0965 75.1906 18.3076C75.1906 18.7563 75.1438 19.1001 75.115 19.3245H66.7284ZM73.0966 17.7612C73.1218 16.3715 72.5282 14.2111 70.0852 14.2111C67.8869 14.2111 66.9263 16.2485 66.7536 17.7612H73.0966V17.7612Z" fill="black"/>
</svg>
