<svg width="25" height="23" viewBox="0 0 25 23" fill="none" xmlns="http://www.w3.org/2000/svg">
<path d="M20.2811 8.9409C20.2452 5.14475 23.3645 3.32087 23.5048 3.23401C21.7491 0.653795 19.0219 0.299152 18.0505 0.259345C15.7298 0.0205025 13.5208 1.6345 12.3407 1.6345C11.1606 1.6345 9.34364 0.291914 7.41878 0.331721C4.88589 0.367909 2.55088 1.81182 1.24485 4.09168C-1.38159 8.6731 0.57565 15.4765 3.14093 19.2003C4.39658 21.0205 5.88609 23.0724 7.85053 22.9964C9.743 22.9204 10.4554 21.766 12.7364 21.766C15.0175 21.766 15.6615 22.9964 17.6583 22.9602C19.6911 22.9204 20.9791 21.1001 22.224 19.2726C23.6559 17.1556 24.2496 15.111 24.2856 15.0024C24.2388 14.9843 20.3243 13.4753 20.2811 8.9409Z" fill="black"/>
</svg>
